<mxfile host="app.diagrams.net" modified="2021-04-29T05:56:52.181Z" agent="5.0 (Macintosh; Intel Mac OS X 10_15_6) AppleWebKit/605.1.15 (KHTML, like Gecko) Version/14.0.3 Safari/605.1.15" etag="7hhvfzUTvWhiO3GWj83S" version="14.6.6" type="github">
  <diagram id="hPtmtx6IpT1gjBAr7_w4" name="Page-1">
    <mxGraphModel dx="1518" dy="970" grid="1" gridSize="10" guides="1" tooltips="1" connect="1" arrows="1" fold="1" page="1" pageScale="1" pageWidth="827" pageHeight="1169" math="0" shadow="0">
      <root>
        <mxCell id="0" />
        <mxCell id="1" parent="0" />
        <mxCell id="3cUhAm3IvbHf3z0y6Tj2-4" value="Client" style="html=1;strokeColor=#1C1C1C;fillColor=#ffffff;fontFamily=Tahoma;fontSize=14;fontColor=#525252;align=center;strokeWidth=2;" parent="1" vertex="1">
          <mxGeometry x="160" y="80" width="90" height="280" as="geometry" />
        </mxCell>
        <mxCell id="3cUhAm3IvbHf3z0y6Tj2-5" value="Authorization&lt;br&gt;Server" style="html=1;strokeColor=#1C1C1C;fillColor=#ffffff;fontFamily=Tahoma;fontSize=14;fontColor=#525252;align=center;strokeWidth=2;" parent="1" vertex="1">
          <mxGeometry x="400" y="80" width="124" height="120" as="geometry" />
        </mxCell>
        <mxCell id="3cUhAm3IvbHf3z0y6Tj2-6" value="Protected&lt;br&gt;Resource" style="html=1;strokeColor=#1C1C1C;fillColor=#ffffff;fontFamily=Tahoma;fontSize=14;fontColor=#525252;align=center;strokeWidth=2;" parent="1" vertex="1">
          <mxGeometry x="400" y="270" width="124" height="90" as="geometry" />
        </mxCell>
        <mxCell id="3cUhAm3IvbHf3z0y6Tj2-7" value="" style="group" parent="1" vertex="1" connectable="0">
          <mxGeometry x="320" y="120" width="40" height="29" as="geometry" />
        </mxCell>
        <mxCell id="3cUhAm3IvbHf3z0y6Tj2-8" value="R" style="text;html=1;strokeColor=none;fillColor=none;align=center;verticalAlign=middle;whiteSpace=wrap;overflow=hidden;fontFamily=Helvetica;fontSize=10;fontColor=#000000;fontStyle=1" parent="3cUhAm3IvbHf3z0y6Tj2-7" vertex="1">
          <mxGeometry width="40" height="20" as="geometry" />
        </mxCell>
        <mxCell id="3cUhAm3IvbHf3z0y6Tj2-9" value="" style="ellipse;whiteSpace=wrap;html=1;strokeColor=#1C1C1C;fillColor=none;fontFamily=Tahoma;fontSize=14;fontColor=#525252;align=center;strokeWidth=2;" parent="3cUhAm3IvbHf3z0y6Tj2-7" vertex="1">
          <mxGeometry x="19" y="19" width="10" height="10" as="geometry" />
        </mxCell>
        <mxCell id="3cUhAm3IvbHf3z0y6Tj2-10" style="edgeStyle=none;rounded=0;html=1;startArrow=none;startFill=0;endArrow=classic;endFill=1;jettySize=auto;orthogonalLoop=1;strokeColor=#000000;fontFamily=Helvetica;fontSize=10;fontColor=#000000;targetPerimeterSpacing=0;endSize=8;sourcePerimeterSpacing=0;startSize=0;" parent="3cUhAm3IvbHf3z0y6Tj2-7" edge="1">
          <mxGeometry relative="1" as="geometry">
            <mxPoint x="36" y="10" as="targetPoint" />
            <mxPoint x="28" y="10" as="sourcePoint" />
          </mxGeometry>
        </mxCell>
        <mxCell id="3cUhAm3IvbHf3z0y6Tj2-13" value="" style="endArrow=none;html=1;entryX=0;entryY=0.5;entryDx=0;entryDy=0;" parent="1" target="3cUhAm3IvbHf3z0y6Tj2-9" edge="1">
          <mxGeometry width="50" height="50" relative="1" as="geometry">
            <mxPoint x="249" y="144" as="sourcePoint" />
            <mxPoint x="410" y="210" as="targetPoint" />
          </mxGeometry>
        </mxCell>
        <mxCell id="3cUhAm3IvbHf3z0y6Tj2-14" value="" style="endArrow=none;html=1;exitX=1;exitY=0.5;exitDx=0;exitDy=0;entryX=-0.002;entryY=0.53;entryDx=0;entryDy=0;entryPerimeter=0;" parent="1" source="3cUhAm3IvbHf3z0y6Tj2-9" target="3cUhAm3IvbHf3z0y6Tj2-5" edge="1">
          <mxGeometry width="50" height="50" relative="1" as="geometry">
            <mxPoint x="360" y="260" as="sourcePoint" />
            <mxPoint x="410" y="210" as="targetPoint" />
          </mxGeometry>
        </mxCell>
        <mxCell id="3cUhAm3IvbHf3z0y6Tj2-15" value="" style="group" parent="1" vertex="1" connectable="0">
          <mxGeometry x="320" y="300" width="40" height="29" as="geometry" />
        </mxCell>
        <mxCell id="3cUhAm3IvbHf3z0y6Tj2-16" value="R" style="text;html=1;strokeColor=none;fillColor=none;align=center;verticalAlign=middle;whiteSpace=wrap;overflow=hidden;fontFamily=Helvetica;fontSize=10;fontColor=#000000;fontStyle=1" parent="3cUhAm3IvbHf3z0y6Tj2-15" vertex="1">
          <mxGeometry width="40" height="20" as="geometry" />
        </mxCell>
        <mxCell id="3cUhAm3IvbHf3z0y6Tj2-17" value="" style="ellipse;whiteSpace=wrap;html=1;strokeColor=#1C1C1C;fillColor=none;fontFamily=Tahoma;fontSize=14;fontColor=#525252;align=center;strokeWidth=2;" parent="3cUhAm3IvbHf3z0y6Tj2-15" vertex="1">
          <mxGeometry x="19" y="19" width="10" height="10" as="geometry" />
        </mxCell>
        <mxCell id="3cUhAm3IvbHf3z0y6Tj2-18" style="edgeStyle=none;rounded=0;html=1;startArrow=none;startFill=0;endArrow=classic;endFill=1;jettySize=auto;orthogonalLoop=1;strokeColor=#000000;fontFamily=Helvetica;fontSize=10;fontColor=#000000;targetPerimeterSpacing=0;endSize=8;sourcePerimeterSpacing=0;startSize=0;" parent="3cUhAm3IvbHf3z0y6Tj2-15" edge="1">
          <mxGeometry relative="1" as="geometry">
            <mxPoint x="36" y="10" as="targetPoint" />
            <mxPoint x="28" y="10" as="sourcePoint" />
          </mxGeometry>
        </mxCell>
        <mxCell id="3cUhAm3IvbHf3z0y6Tj2-19" value="" style="endArrow=none;html=1;entryX=0;entryY=0.5;entryDx=0;entryDy=0;exitX=1.007;exitY=0.87;exitDx=0;exitDy=0;exitPerimeter=0;" parent="1" source="3cUhAm3IvbHf3z0y6Tj2-4" target="3cUhAm3IvbHf3z0y6Tj2-17" edge="1">
          <mxGeometry width="50" height="50" relative="1" as="geometry">
            <mxPoint x="289" y="304" as="sourcePoint" />
            <mxPoint x="410" y="210" as="targetPoint" />
          </mxGeometry>
        </mxCell>
        <mxCell id="3cUhAm3IvbHf3z0y6Tj2-20" value="" style="endArrow=none;html=1;exitX=1;exitY=0.5;exitDx=0;exitDy=0;" parent="1" source="3cUhAm3IvbHf3z0y6Tj2-17" edge="1">
          <mxGeometry width="50" height="50" relative="1" as="geometry">
            <mxPoint x="360" y="299.76" as="sourcePoint" />
            <mxPoint x="399" y="324" as="targetPoint" />
          </mxGeometry>
        </mxCell>
        <mxCell id="3cUhAm3IvbHf3z0y6Tj2-23" value="Get an access token" style="text;html=1;strokeColor=none;fillColor=none;align=center;verticalAlign=middle;whiteSpace=wrap;overflow=hidden;fontFamily=Helvetica;fontSize=10;fontColor=#000000;fontStyle=1" parent="1" vertex="1">
          <mxGeometry x="270" y="149" width="110" height="20" as="geometry" />
        </mxCell>
        <mxCell id="3cUhAm3IvbHf3z0y6Tj2-26" value="Use the access token" style="text;html=1;strokeColor=none;fillColor=none;align=center;verticalAlign=middle;whiteSpace=wrap;overflow=hidden;fontFamily=Helvetica;fontSize=10;fontColor=#000000;fontStyle=1" parent="1" vertex="1">
          <mxGeometry x="270" y="329" width="110" height="20" as="geometry" />
        </mxCell>
        <mxCell id="3cUhAm3IvbHf3z0y6Tj2-37" value="" style="group" parent="1" vertex="1" connectable="0">
          <mxGeometry x="442" y="230" width="40" height="20" as="geometry" />
        </mxCell>
        <mxCell id="3cUhAm3IvbHf3z0y6Tj2-43" value="" style="group;rotation=-180;" parent="1" vertex="1" connectable="0">
          <mxGeometry x="460" y="230" width="40" height="20" as="geometry" />
        </mxCell>
        <mxCell id="3cUhAm3IvbHf3z0y6Tj2-44" value="" style="group;rotation=-180;" parent="3cUhAm3IvbHf3z0y6Tj2-43" vertex="1" connectable="0">
          <mxGeometry width="40" height="20" as="geometry" />
        </mxCell>
        <mxCell id="3cUhAm3IvbHf3z0y6Tj2-45" value="" style="group;rotation=-180;" parent="3cUhAm3IvbHf3z0y6Tj2-44" vertex="1" connectable="0">
          <mxGeometry width="40" height="20" as="geometry" />
        </mxCell>
        <mxCell id="3cUhAm3IvbHf3z0y6Tj2-46" value="" style="endArrow=classic;html=1;strokeColor=#000000;fontFamily=Helvetica;fontSize=14;fontColor=#525252;" parent="3cUhAm3IvbHf3z0y6Tj2-45" edge="1">
          <mxGeometry width="50" height="50" relative="1" as="geometry">
            <mxPoint x="20" y="1" as="sourcePoint" />
            <mxPoint x="20" y="-4" as="targetPoint" />
          </mxGeometry>
        </mxCell>
        <mxCell id="3cUhAm3IvbHf3z0y6Tj2-48" value="" style="ellipse;whiteSpace=wrap;html=1;strokeColor=#1C1C1C;fillColor=none;fontFamily=Tahoma;fontSize=14;fontColor=#525252;align=center;strokeWidth=2;rotation=-180;" parent="3cUhAm3IvbHf3z0y6Tj2-45" vertex="1">
          <mxGeometry x="1" width="10" height="10" as="geometry" />
        </mxCell>
        <mxCell id="3cUhAm3IvbHf3z0y6Tj2-50" value="" style="endArrow=none;html=1;entryX=0.5;entryY=1;entryDx=0;entryDy=0;jumpStyle=sharp;sketch=0;dashed=1;" parent="1" target="3cUhAm3IvbHf3z0y6Tj2-48" edge="1">
          <mxGeometry width="50" height="50" relative="1" as="geometry">
            <mxPoint x="466" y="201" as="sourcePoint" />
            <mxPoint x="330" y="230" as="targetPoint" />
          </mxGeometry>
        </mxCell>
        <mxCell id="3cUhAm3IvbHf3z0y6Tj2-51" value="" style="endArrow=none;html=1;entryX=0.533;entryY=0.003;entryDx=0;entryDy=0;exitX=0.5;exitY=0;exitDx=0;exitDy=0;entryPerimeter=0;dashed=1;" parent="1" source="3cUhAm3IvbHf3z0y6Tj2-48" target="3cUhAm3IvbHf3z0y6Tj2-6" edge="1">
          <mxGeometry width="50" height="50" relative="1" as="geometry">
            <mxPoint x="475.472" y="249.99999999999991" as="sourcePoint" />
            <mxPoint x="476" y="279.28" as="targetPoint" />
          </mxGeometry>
        </mxCell>
        <mxCell id="3cUhAm3IvbHf3z0y6Tj2-52" value="&lt;div&gt;Validate the access token (optional)&lt;/div&gt;" style="text;html=1;strokeColor=none;fillColor=none;align=center;verticalAlign=middle;whiteSpace=wrap;overflow=hidden;fontFamily=Helvetica;fontSize=10;fontColor=#000000;fontStyle=1" parent="1" vertex="1">
          <mxGeometry x="380" y="210" width="84" height="40" as="geometry" />
        </mxCell>
      </root>
    </mxGraphModel>
  </diagram>
</mxfile>
